<svg xmlns="http://www.w3.org/2000/svg" viewBox="0 0 1600 760" role="img" preserveAspectRatio="xMidYMid slice">
  <defs><linearGradient id="sky" x1="0" y1="0" x2="0" y2="1">
      <stop offset="0" stop-color="#141a26"/><stop offset=".45" stop-color="#4a2c1e"/>
      <stop offset=".78" stop-color="#c96a2a"/><stop offset="1" stop-color="#ffb066"/>
    </linearGradient>
    <radialGradient id="sunglow" cx=".5" cy=".5" r=".5">
      <stop offset="0" stop-color="#ffb066" stop-opacity=".9"/>
      <stop offset="1" stop-color="#ffb066" stop-opacity="0"/>
    </radialGradient>
    <radialGradient id="vig" cx=".5" cy=".42" r=".75">
      <stop offset=".55" stop-color="#000" stop-opacity="0"/>
      <stop offset="1" stop-color="#000" stop-opacity=".38"/>
    </radialGradient>
    <filter id="grain"><feTurbulence type="fractalNoise" baseFrequency="0.8" numOctaves="2" stitchTiles="stitch"/>
      <feColorMatrix type="matrix" values="0 0 0 0 0 0 0 0 0 0 0 0 0 0 0 0 0 0 0.05 0"/></filter></defs>
  <rect width="1600" height="760" fill="url(#sky)"/>
  <ellipse cx="175" cy="61" rx="70" ry="10" fill="#fff" opacity="0.06"/><ellipse cx="198" cy="67" rx="46" ry="7" fill="#fff" opacity="0.05"/><ellipse cx="799" cy="156" rx="81" ry="11" fill="#fff" opacity="0.06"/><ellipse cx="826" cy="162" rx="54" ry="9" fill="#fff" opacity="0.05"/><ellipse cx="1431" cy="159" rx="99" ry="14" fill="#fff" opacity="0.06"/><ellipse cx="1464" cy="165" rx="66" ry="11" fill="#fff" opacity="0.05"/>
  <defs><pattern id="hm" width="10" height="22" patternUnits="userSpaceOnUse">
        <path d="M0 0V22 M0 0H10 M0 11H10" stroke="#171b22" stroke-width="1.5" opacity=".9"/></pattern></defs>
      <circle cx="1180" cy="430" r="224" fill="url(#sunglow)"/><circle cx="1180" cy="430" r="70" fill="#ffd9a0"/><path d="M0 520 Q 350 440 700 505 T 1600 488 V660 H0 Z" fill="#0d1016" opacity=".7"/><path d="M0 570 Q 480 505 900 556 T 1600 545 V660 H0 Z" fill="#0b0d12" opacity=".92"/>
      <g transform="translate(210 585) scale(2.1 2.1)" fill="#101318" stroke="#101318">
      <path d="M0 0 C 2 -18 4 -34 10 -46" stroke-width="5" fill="none" stroke-linecap="round"/>
      <path d="M6 -28 C 14 -36 22 -42 34 -47" stroke-width="3.4" fill="none" stroke-linecap="round"/>
      <path d="M8 -34 C 2 -42 -8 -48 -20 -51" stroke-width="3.4" fill="none" stroke-linecap="round"/>
      <path d="M-34 -50 C -20 -62 24 -64 44 -52 C 30 -46 -18 -44 -34 -50 Z"/>
      <path d="M-24 -56 C -12 -64 18 -65 30 -58" opacity=".9"/>
    </g><g transform="translate(1430 570) scale(-1.5 1.5)" fill="#101318" stroke="#101318">
      <path d="M0 0 C 2 -18 4 -34 10 -46" stroke-width="5" fill="none" stroke-linecap="round"/>
      <path d="M6 -28 C 14 -36 22 -42 34 -47" stroke-width="3.4" fill="none" stroke-linecap="round"/>
      <path d="M8 -34 C 2 -42 -8 -48 -20 -51" stroke-width="3.4" fill="none" stroke-linecap="round"/>
      <path d="M-34 -50 C -20 -62 24 -64 44 -52 C 30 -46 -18 -44 -34 -50 Z"/>
      <path d="M-24 -56 C -12 -64 18 -65 30 -58" opacity=".9"/>
    </g><g transform="translate(950 560) scale(1.0 1.0)" fill="#101318" stroke="#101318">
      <path d="M0 0 C 2 -18 4 -34 10 -46" stroke-width="5" fill="none" stroke-linecap="round"/>
      <path d="M6 -28 C 14 -36 22 -42 34 -47" stroke-width="3.4" fill="none" stroke-linecap="round"/>
      <path d="M8 -34 C 2 -42 -8 -48 -20 -51" stroke-width="3.4" fill="none" stroke-linecap="round"/>
      <path d="M-34 -50 C -20 -62 24 -64 44 -52 C 30 -46 -18 -44 -34 -50 Z"/>
      <path d="M-24 -56 C -12 -64 18 -65 30 -58" opacity=".9"/>
    </g>
      <path d="M660.0 180 q6.5 -9.1 13.0 0 q6.5 -9.1 13.0 0" stroke="#101318" stroke-width="2.6" fill="none" stroke-linecap="round"/><path d="M693.8 170 q6.5 -9.1 13.0 0 q6.5 -9.1 13.0 0" stroke="#101318" stroke-width="2.6" fill="none" stroke-linecap="round"/><path d="M727.6 180 q6.5 -9.1 13.0 0 q6.5 -9.1 13.0 0" stroke="#101318" stroke-width="2.6" fill="none" stroke-linecap="round"/><path d="M761.4 170 q6.5 -9.1 13.0 0 q6.5 -9.1 13.0 0" stroke="#101318" stroke-width="2.6" fill="none" stroke-linecap="round"/><path d="M795.2 180 q6.5 -9.1 13.0 0 q6.5 -9.1 13.0 0" stroke="#101318" stroke-width="2.6" fill="none" stroke-linecap="round"/><path d="M1220.0 240 q5.0 -7.0 10.0 0 q5.0 -7.0 10.0 0" stroke="#101318" stroke-width="2.0" fill="none" stroke-linecap="round"/><path d="M1246.0 230 q5.0 -7.0 10.0 0 q5.0 -7.0 10.0 0" stroke="#101318" stroke-width="2.0" fill="none" stroke-linecap="round"/><path d="M1272.0 240 q5.0 -7.0 10.0 0 q5.0 -7.0 10.0 0" stroke="#101318" stroke-width="2.0" fill="none" stroke-linecap="round"/>
      <rect x="0" y="470" width="1600" height="190" fill="url(#hm)"/>
      <rect x="0" y="464" width="1600" height="7" fill="#171b22"/><line x1="0" y1="464" x2="1600" y2="464" stroke="#ffd45e" stroke-width="1.6" opacity="0.5"/>
      <circle cx="0" cy="446" r="22" stroke="#171b22" stroke-width="2.6" fill="none"/><circle cx="0" cy="446" r="22" stroke="#ffd45e" stroke-width=".8" fill="none" opacity=".3"/><circle cx="30" cy="446" r="22" stroke="#171b22" stroke-width="2.6" fill="none"/><circle cx="30" cy="446" r="22" stroke="#ffd45e" stroke-width=".8" fill="none" opacity=".3"/><circle cx="60" cy="446" r="22" stroke="#171b22" stroke-width="2.6" fill="none"/><circle cx="60" cy="446" r="22" stroke="#ffd45e" stroke-width=".8" fill="none" opacity=".3"/><circle cx="90" cy="446" r="22" stroke="#171b22" stroke-width="2.6" fill="none"/><circle cx="90" cy="446" r="22" stroke="#ffd45e" stroke-width=".8" fill="none" opacity=".3"/><circle cx="120" cy="446" r="22" stroke="#171b22" stroke-width="2.6" fill="none"/><circle cx="120" cy="446" r="22" stroke="#ffd45e" stroke-width=".8" fill="none" opacity=".3"/><circle cx="150" cy="446" r="22" stroke="#171b22" stroke-width="2.6" fill="none"/><circle cx="150" cy="446" r="22" stroke="#ffd45e" stroke-width=".8" fill="none" opacity=".3"/><circle cx="180" cy="446" r="22" stroke="#171b22" stroke-width="2.6" fill="none"/><circle cx="180" cy="446" r="22" stroke="#ffd45e" stroke-width=".8" fill="none" opacity=".3"/><circle cx="210" cy="446" r="22" stroke="#171b22" stroke-width="2.6" fill="none"/><circle cx="210" cy="446" r="22" stroke="#ffd45e" stroke-width=".8" fill="none" opacity=".3"/><circle cx="240" cy="446" r="22" stroke="#171b22" stroke-width="2.6" fill="none"/><circle cx="240" cy="446" r="22" stroke="#ffd45e" stroke-width=".8" fill="none" opacity=".3"/><circle cx="270" cy="446" r="22" stroke="#171b22" stroke-width="2.6" fill="none"/><circle cx="270" cy="446" r="22" stroke="#ffd45e" stroke-width=".8" fill="none" opacity=".3"/><circle cx="300" cy="446" r="22" stroke="#171b22" stroke-width="2.6" fill="none"/><circle cx="300" cy="446" r="22" stroke="#ffd45e" stroke-width=".8" fill="none" opacity=".3"/><circle cx="330" cy="446" r="22" stroke="#171b22" stroke-width="2.6" fill="none"/><circle cx="330" cy="446" r="22" stroke="#ffd45e" stroke-width=".8" fill="none" opacity=".3"/><circle cx="360" cy="446" r="22" stroke="#171b22" stroke-width="2.6" fill="none"/><circle cx="360" cy="446" r="22" stroke="#ffd45e" stroke-width=".8" fill="none" opacity=".3"/><circle cx="390" cy="446" r="22" stroke="#171b22" stroke-width="2.6" fill="none"/><circle cx="390" cy="446" r="22" stroke="#ffd45e" stroke-width=".8" fill="none" opacity=".3"/><circle cx="420" cy="446" r="22" stroke="#171b22" stroke-width="2.6" fill="none"/><circle cx="420" cy="446" r="22" stroke="#ffd45e" stroke-width=".8" fill="none" opacity=".3"/><circle cx="450" cy="446" r="22" stroke="#171b22" stroke-width="2.6" fill="none"/><circle cx="450" cy="446" r="22" stroke="#ffd45e" stroke-width=".8" fill="none" opacity=".3"/><circle cx="480" cy="446" r="22" stroke="#171b22" stroke-width="2.6" fill="none"/><circle cx="480" cy="446" r="22" stroke="#ffd45e" stroke-width=".8" fill="none" opacity=".3"/><circle cx="510" cy="446" r="22" stroke="#171b22" stroke-width="2.6" fill="none"/><circle cx="510" cy="446" r="22" stroke="#ffd45e" stroke-width=".8" fill="none" opacity=".3"/><circle cx="540" cy="446" r="22" stroke="#171b22" stroke-width="2.6" fill="none"/><circle cx="540" cy="446" r="22" stroke="#ffd45e" stroke-width=".8" fill="none" opacity=".3"/><circle cx="570" cy="446" r="22" stroke="#171b22" stroke-width="2.6" fill="none"/><circle cx="570" cy="446" r="22" stroke="#ffd45e" stroke-width=".8" fill="none" opacity=".3"/><circle cx="600" cy="446" r="22" stroke="#171b22" stroke-width="2.6" fill="none"/><circle cx="600" cy="446" r="22" stroke="#ffd45e" stroke-width=".8" fill="none" opacity=".3"/><circle cx="630" cy="446" r="22" stroke="#171b22" stroke-width="2.6" fill="none"/><circle cx="630" cy="446" r="22" stroke="#ffd45e" stroke-width=".8" fill="none" opacity=".3"/><circle cx="660" cy="446" r="22" stroke="#171b22" stroke-width="2.6" fill="none"/><circle cx="660" cy="446" r="22" stroke="#ffd45e" stroke-width=".8" fill="none" opacity=".3"/><circle cx="690" cy="446" r="22" stroke="#171b22" stroke-width="2.6" fill="none"/><circle cx="690" cy="446" r="22" stroke="#ffd45e" stroke-width=".8" fill="none" opacity=".3"/><circle cx="720" cy="446" r="22" stroke="#171b22" stroke-width="2.6" fill="none"/><circle cx="720" cy="446" r="22" stroke="#ffd45e" stroke-width=".8" fill="none" opacity=".3"/><circle cx="750" cy="446" r="22" stroke="#171b22" stroke-width="2.6" fill="none"/><circle cx="750" cy="446" r="22" stroke="#ffd45e" stroke-width=".8" fill="none" opacity=".3"/><circle cx="780" cy="446" r="22" stroke="#171b22" stroke-width="2.6" fill="none"/><circle cx="780" cy="446" r="22" stroke="#ffd45e" stroke-width=".8" fill="none" opacity=".3"/><circle cx="810" cy="446" r="22" stroke="#171b22" stroke-width="2.6" fill="none"/><circle cx="810" cy="446" r="22" stroke="#ffd45e" stroke-width=".8" fill="none" opacity=".3"/><circle cx="840" cy="446" r="22" stroke="#171b22" stroke-width="2.6" fill="none"/><circle cx="840" cy="446" r="22" stroke="#ffd45e" stroke-width=".8" fill="none" opacity=".3"/><circle cx="870" cy="446" r="22" stroke="#171b22" stroke-width="2.6" fill="none"/><circle cx="870" cy="446" r="22" stroke="#ffd45e" stroke-width=".8" fill="none" opacity=".3"/><circle cx="900" cy="446" r="22" stroke="#171b22" stroke-width="2.6" fill="none"/><circle cx="900" cy="446" r="22" stroke="#ffd45e" stroke-width=".8" fill="none" opacity=".3"/><circle cx="930" cy="446" r="22" stroke="#171b22" stroke-width="2.6" fill="none"/><circle cx="930" cy="446" r="22" stroke="#ffd45e" stroke-width=".8" fill="none" opacity=".3"/><circle cx="960" cy="446" r="22" stroke="#171b22" stroke-width="2.6" fill="none"/><circle cx="960" cy="446" r="22" stroke="#ffd45e" stroke-width=".8" fill="none" opacity=".3"/><circle cx="990" cy="446" r="22" stroke="#171b22" stroke-width="2.6" fill="none"/><circle cx="990" cy="446" r="22" stroke="#ffd45e" stroke-width=".8" fill="none" opacity=".3"/><circle cx="1020" cy="446" r="22" stroke="#171b22" stroke-width="2.6" fill="none"/><circle cx="1020" cy="446" r="22" stroke="#ffd45e" stroke-width=".8" fill="none" opacity=".3"/><circle cx="1050" cy="446" r="22" stroke="#171b22" stroke-width="2.6" fill="none"/><circle cx="1050" cy="446" r="22" stroke="#ffd45e" stroke-width=".8" fill="none" opacity=".3"/><circle cx="1080" cy="446" r="22" stroke="#171b22" stroke-width="2.6" fill="none"/><circle cx="1080" cy="446" r="22" stroke="#ffd45e" stroke-width=".8" fill="none" opacity=".3"/><circle cx="1110" cy="446" r="22" stroke="#171b22" stroke-width="2.6" fill="none"/><circle cx="1110" cy="446" r="22" stroke="#ffd45e" stroke-width=".8" fill="none" opacity=".3"/><circle cx="1140" cy="446" r="22" stroke="#171b22" stroke-width="2.6" fill="none"/><circle cx="1140" cy="446" r="22" stroke="#ffd45e" stroke-width=".8" fill="none" opacity=".3"/><circle cx="1170" cy="446" r="22" stroke="#171b22" stroke-width="2.6" fill="none"/><circle cx="1170" cy="446" r="22" stroke="#ffd45e" stroke-width=".8" fill="none" opacity=".3"/><circle cx="1200" cy="446" r="22" stroke="#171b22" stroke-width="2.6" fill="none"/><circle cx="1200" cy="446" r="22" stroke="#ffd45e" stroke-width=".8" fill="none" opacity=".3"/><circle cx="1230" cy="446" r="22" stroke="#171b22" stroke-width="2.6" fill="none"/><circle cx="1230" cy="446" r="22" stroke="#ffd45e" stroke-width=".8" fill="none" opacity=".3"/><circle cx="1260" cy="446" r="22" stroke="#171b22" stroke-width="2.6" fill="none"/><circle cx="1260" cy="446" r="22" stroke="#ffd45e" stroke-width=".8" fill="none" opacity=".3"/><circle cx="1290" cy="446" r="22" stroke="#171b22" stroke-width="2.6" fill="none"/><circle cx="1290" cy="446" r="22" stroke="#ffd45e" stroke-width=".8" fill="none" opacity=".3"/><circle cx="1320" cy="446" r="22" stroke="#171b22" stroke-width="2.6" fill="none"/><circle cx="1320" cy="446" r="22" stroke="#ffd45e" stroke-width=".8" fill="none" opacity=".3"/><circle cx="1350" cy="446" r="22" stroke="#171b22" stroke-width="2.6" fill="none"/><circle cx="1350" cy="446" r="22" stroke="#ffd45e" stroke-width=".8" fill="none" opacity=".3"/><circle cx="1380" cy="446" r="22" stroke="#171b22" stroke-width="2.6" fill="none"/><circle cx="1380" cy="446" r="22" stroke="#ffd45e" stroke-width=".8" fill="none" opacity=".3"/><circle cx="1410" cy="446" r="22" stroke="#171b22" stroke-width="2.6" fill="none"/><circle cx="1410" cy="446" r="22" stroke="#ffd45e" stroke-width=".8" fill="none" opacity=".3"/><circle cx="1440" cy="446" r="22" stroke="#171b22" stroke-width="2.6" fill="none"/><circle cx="1440" cy="446" r="22" stroke="#ffd45e" stroke-width=".8" fill="none" opacity=".3"/><circle cx="1470" cy="446" r="22" stroke="#171b22" stroke-width="2.6" fill="none"/><circle cx="1470" cy="446" r="22" stroke="#ffd45e" stroke-width=".8" fill="none" opacity=".3"/><circle cx="1500" cy="446" r="22" stroke="#171b22" stroke-width="2.6" fill="none"/><circle cx="1500" cy="446" r="22" stroke="#ffd45e" stroke-width=".8" fill="none" opacity=".3"/><circle cx="1530" cy="446" r="22" stroke="#171b22" stroke-width="2.6" fill="none"/><circle cx="1530" cy="446" r="22" stroke="#ffd45e" stroke-width=".8" fill="none" opacity=".3"/><circle cx="1560" cy="446" r="22" stroke="#171b22" stroke-width="2.6" fill="none"/><circle cx="1560" cy="446" r="22" stroke="#ffd45e" stroke-width=".8" fill="none" opacity=".3"/><circle cx="1590" cy="446" r="22" stroke="#171b22" stroke-width="2.6" fill="none"/><circle cx="1590" cy="446" r="22" stroke="#ffd45e" stroke-width=".8" fill="none" opacity=".3"/><circle cx="1620" cy="446" r="22" stroke="#171b22" stroke-width="2.6" fill="none"/><circle cx="1620" cy="446" r="22" stroke="#ffd45e" stroke-width=".8" fill="none" opacity=".3"/>
      <rect x="76.0" y="460" width="8" height="200" fill="#171b22"/><rect x="74.5" y="456" width="11" height="5" rx="2" fill="#171b22"/><line x1="76.0" y1="460" x2="76.0" y2="660" stroke="#ffd45e" stroke-width="1" opacity=".35"/><rect x="246.0" y="460" width="8" height="200" fill="#171b22"/><rect x="244.5" y="456" width="11" height="5" rx="2" fill="#171b22"/><line x1="246.0" y1="460" x2="246.0" y2="660" stroke="#ffd45e" stroke-width="1" opacity=".35"/><rect x="416.0" y="460" width="8" height="200" fill="#171b22"/><rect x="414.5" y="456" width="11" height="5" rx="2" fill="#171b22"/><line x1="416.0" y1="460" x2="416.0" y2="660" stroke="#ffd45e" stroke-width="1" opacity=".35"/><rect x="586.0" y="460" width="8" height="200" fill="#171b22"/><rect x="584.5" y="456" width="11" height="5" rx="2" fill="#171b22"/><line x1="586.0" y1="460" x2="586.0" y2="660" stroke="#ffd45e" stroke-width="1" opacity=".35"/><rect x="756.0" y="460" width="8" height="200" fill="#171b22"/><rect x="754.5" y="456" width="11" height="5" rx="2" fill="#171b22"/><line x1="756.0" y1="460" x2="756.0" y2="660" stroke="#ffd45e" stroke-width="1" opacity=".35"/><rect x="926.0" y="460" width="8" height="200" fill="#171b22"/><rect x="924.5" y="456" width="11" height="5" rx="2" fill="#171b22"/><line x1="926.0" y1="460" x2="926.0" y2="660" stroke="#ffd45e" stroke-width="1" opacity=".35"/><rect x="1096.0" y="460" width="8" height="200" fill="#171b22"/><rect x="1094.5" y="456" width="11" height="5" rx="2" fill="#171b22"/><line x1="1096.0" y1="460" x2="1096.0" y2="660" stroke="#ffd45e" stroke-width="1" opacity=".35"/><rect x="1266.0" y="460" width="8" height="200" fill="#171b22"/><rect x="1264.5" y="456" width="11" height="5" rx="2" fill="#171b22"/><line x1="1266.0" y1="460" x2="1266.0" y2="660" stroke="#ffd45e" stroke-width="1" opacity=".35"/><rect x="1436.0" y="460" width="8" height="200" fill="#171b22"/><rect x="1434.5" y="456" width="11" height="5" rx="2" fill="#171b22"/><line x1="1436.0" y1="460" x2="1436.0" y2="660" stroke="#ffd45e" stroke-width="1" opacity=".35"/>
      <rect x="0" y="660" width="1600" height="100" fill="#090b0f"/>
  <rect width="1600" height="760" fill="url(#vig)"/>
  <rect width="1600" height="760" filter="url(#grain)" opacity=".8"/>
</svg>