<svg xmlns="http://www.w3.org/2000/svg" viewBox="0 0 800 500" role="img" preserveAspectRatio="xMidYMid slice">
  <defs><linearGradient id="sky" x1="0" y1="0" x2="0" y2="1">
      <stop offset="0" stop-color="#171426"/><stop offset=".45" stop-color="#45223c"/>
      <stop offset=".78" stop-color="#984465"/><stop offset="1" stop-color="#ff9a76"/>
    </linearGradient>
    <radialGradient id="sunglow" cx=".5" cy=".5" r=".5">
      <stop offset="0" stop-color="#ff9a76" stop-opacity=".9"/>
      <stop offset="1" stop-color="#ff9a76" stop-opacity="0"/>
    </radialGradient>
    <radialGradient id="vig" cx=".5" cy=".42" r=".75">
      <stop offset=".55" stop-color="#000" stop-opacity="0"/>
      <stop offset="1" stop-color="#000" stop-opacity=".38"/>
    </radialGradient>
    <filter id="grain"><feTurbulence type="fractalNoise" baseFrequency="0.8" numOctaves="2" stitchTiles="stitch"/>
      <feColorMatrix type="matrix" values="0 0 0 0 0 0 0 0 0 0 0 0 0 0 0 0 0 0 0.05 0"/></filter></defs>
  <rect width="800" height="500" fill="url(#sky)"/><circle cx="560" cy="230" r="122" fill="url(#sunglow)"/><circle cx="560" cy="230" r="38" fill="#ffd9a0"/>
  <ellipse cx="325" cy="87" rx="83" ry="11" fill="#fff" opacity="0.06"/><ellipse cx="352" cy="93" rx="55" ry="9" fill="#fff" opacity="0.05"/><ellipse cx="727" cy="79" rx="78" ry="11" fill="#fff" opacity="0.06"/><ellipse cx="753" cy="85" rx="52" ry="8" fill="#fff" opacity="0.05"/><ellipse cx="290" cy="132" rx="83" ry="11" fill="#fff" opacity="0.06"/><ellipse cx="317" cy="138" rx="55" ry="9" fill="#fff" opacity="0.05"/>
  <defs><pattern id="bw" width="46" height="24" patternUnits="userSpaceOnUse">
        <rect width="46" height="24" fill="#171b22"/>
        <path d="M0 12 H46 M23 0 V12 M0 12 M11 12 V24 M34 12 V24" stroke="#0c0f13" stroke-width="2"/></pattern></defs>
      <path d="M0 340 Q 176 292 360 330 T 800 322 V440 H0 Z" fill="#0d1016" opacity=".72"/><path d="M0 372 Q 240 336 480 366 T 800 356 V440 H0 Z" fill="#0b0d12" opacity=".92"/><g transform="translate(680 350) scale(-1.1 1.1)" fill="#101318" stroke="#101318">
      <path d="M0 0 C 2 -18 4 -34 10 -46" stroke-width="5" fill="none" stroke-linecap="round"/>
      <path d="M6 -28 C 14 -36 22 -42 34 -47" stroke-width="3.4" fill="none" stroke-linecap="round"/>
      <path d="M8 -34 C 2 -42 -8 -48 -20 -51" stroke-width="3.4" fill="none" stroke-linecap="round"/>
      <path d="M-34 -50 C -20 -62 24 -64 44 -52 C 30 -46 -18 -44 -34 -50 Z"/>
      <path d="M-24 -56 C -12 -64 18 -65 30 -58" opacity=".9"/>
    </g><path d="M120.0 110 q5.0 -7.0 10.0 0 q5.0 -7.0 10.0 0" stroke="#101318" stroke-width="2.0" fill="none" stroke-linecap="round"/><path d="M146.0 100 q5.0 -7.0 10.0 0 q5.0 -7.0 10.0 0" stroke="#101318" stroke-width="2.0" fill="none" stroke-linecap="round"/><path d="M172.0 110 q5.0 -7.0 10.0 0 q5.0 -7.0 10.0 0" stroke="#101318" stroke-width="2.0" fill="none" stroke-linecap="round"/>
      <rect x="0" y="342" width="800" height="98" fill="url(#bw)"/>
      <line x1="0" y1="342" x2="800" y2="342" stroke="#ffd45e" stroke-width="1.6" opacity="0.45"/>
      <circle cx="0" cy="322" r="19" stroke="#171b22" stroke-width="2.6" fill="none"/><circle cx="0" cy="322" r="19" stroke="#ffd45e" stroke-width=".8" fill="none" opacity=".35"/><circle cx="26" cy="322" r="19" stroke="#171b22" stroke-width="2.6" fill="none"/><circle cx="26" cy="322" r="19" stroke="#ffd45e" stroke-width=".8" fill="none" opacity=".35"/><circle cx="52" cy="322" r="19" stroke="#171b22" stroke-width="2.6" fill="none"/><circle cx="52" cy="322" r="19" stroke="#ffd45e" stroke-width=".8" fill="none" opacity=".35"/><circle cx="78" cy="322" r="19" stroke="#171b22" stroke-width="2.6" fill="none"/><circle cx="78" cy="322" r="19" stroke="#ffd45e" stroke-width=".8" fill="none" opacity=".35"/><circle cx="104" cy="322" r="19" stroke="#171b22" stroke-width="2.6" fill="none"/><circle cx="104" cy="322" r="19" stroke="#ffd45e" stroke-width=".8" fill="none" opacity=".35"/><circle cx="130" cy="322" r="19" stroke="#171b22" stroke-width="2.6" fill="none"/><circle cx="130" cy="322" r="19" stroke="#ffd45e" stroke-width=".8" fill="none" opacity=".35"/><circle cx="156" cy="322" r="19" stroke="#171b22" stroke-width="2.6" fill="none"/><circle cx="156" cy="322" r="19" stroke="#ffd45e" stroke-width=".8" fill="none" opacity=".35"/><circle cx="182" cy="322" r="19" stroke="#171b22" stroke-width="2.6" fill="none"/><circle cx="182" cy="322" r="19" stroke="#ffd45e" stroke-width=".8" fill="none" opacity=".35"/><circle cx="208" cy="322" r="19" stroke="#171b22" stroke-width="2.6" fill="none"/><circle cx="208" cy="322" r="19" stroke="#ffd45e" stroke-width=".8" fill="none" opacity=".35"/><circle cx="234" cy="322" r="19" stroke="#171b22" stroke-width="2.6" fill="none"/><circle cx="234" cy="322" r="19" stroke="#ffd45e" stroke-width=".8" fill="none" opacity=".35"/><circle cx="260" cy="322" r="19" stroke="#171b22" stroke-width="2.6" fill="none"/><circle cx="260" cy="322" r="19" stroke="#ffd45e" stroke-width=".8" fill="none" opacity=".35"/><circle cx="286" cy="322" r="19" stroke="#171b22" stroke-width="2.6" fill="none"/><circle cx="286" cy="322" r="19" stroke="#ffd45e" stroke-width=".8" fill="none" opacity=".35"/><circle cx="312" cy="322" r="19" stroke="#171b22" stroke-width="2.6" fill="none"/><circle cx="312" cy="322" r="19" stroke="#ffd45e" stroke-width=".8" fill="none" opacity=".35"/><circle cx="338" cy="322" r="19" stroke="#171b22" stroke-width="2.6" fill="none"/><circle cx="338" cy="322" r="19" stroke="#ffd45e" stroke-width=".8" fill="none" opacity=".35"/><circle cx="364" cy="322" r="19" stroke="#171b22" stroke-width="2.6" fill="none"/><circle cx="364" cy="322" r="19" stroke="#ffd45e" stroke-width=".8" fill="none" opacity=".35"/><circle cx="390" cy="322" r="19" stroke="#171b22" stroke-width="2.6" fill="none"/><circle cx="390" cy="322" r="19" stroke="#ffd45e" stroke-width=".8" fill="none" opacity=".35"/><circle cx="416" cy="322" r="19" stroke="#171b22" stroke-width="2.6" fill="none"/><circle cx="416" cy="322" r="19" stroke="#ffd45e" stroke-width=".8" fill="none" opacity=".35"/><circle cx="442" cy="322" r="19" stroke="#171b22" stroke-width="2.6" fill="none"/><circle cx="442" cy="322" r="19" stroke="#ffd45e" stroke-width=".8" fill="none" opacity=".35"/><circle cx="468" cy="322" r="19" stroke="#171b22" stroke-width="2.6" fill="none"/><circle cx="468" cy="322" r="19" stroke="#ffd45e" stroke-width=".8" fill="none" opacity=".35"/><circle cx="494" cy="322" r="19" stroke="#171b22" stroke-width="2.6" fill="none"/><circle cx="494" cy="322" r="19" stroke="#ffd45e" stroke-width=".8" fill="none" opacity=".35"/><circle cx="520" cy="322" r="19" stroke="#171b22" stroke-width="2.6" fill="none"/><circle cx="520" cy="322" r="19" stroke="#ffd45e" stroke-width=".8" fill="none" opacity=".35"/><circle cx="546" cy="322" r="19" stroke="#171b22" stroke-width="2.6" fill="none"/><circle cx="546" cy="322" r="19" stroke="#ffd45e" stroke-width=".8" fill="none" opacity=".35"/><circle cx="572" cy="322" r="19" stroke="#171b22" stroke-width="2.6" fill="none"/><circle cx="572" cy="322" r="19" stroke="#ffd45e" stroke-width=".8" fill="none" opacity=".35"/><circle cx="598" cy="322" r="19" stroke="#171b22" stroke-width="2.6" fill="none"/><circle cx="598" cy="322" r="19" stroke="#ffd45e" stroke-width=".8" fill="none" opacity=".35"/><circle cx="624" cy="322" r="19" stroke="#171b22" stroke-width="2.6" fill="none"/><circle cx="624" cy="322" r="19" stroke="#ffd45e" stroke-width=".8" fill="none" opacity=".35"/><circle cx="650" cy="322" r="19" stroke="#171b22" stroke-width="2.6" fill="none"/><circle cx="650" cy="322" r="19" stroke="#ffd45e" stroke-width=".8" fill="none" opacity=".35"/><circle cx="676" cy="322" r="19" stroke="#171b22" stroke-width="2.6" fill="none"/><circle cx="676" cy="322" r="19" stroke="#ffd45e" stroke-width=".8" fill="none" opacity=".35"/><circle cx="702" cy="322" r="19" stroke="#171b22" stroke-width="2.6" fill="none"/><circle cx="702" cy="322" r="19" stroke="#ffd45e" stroke-width=".8" fill="none" opacity=".35"/><circle cx="728" cy="322" r="19" stroke="#171b22" stroke-width="2.6" fill="none"/><circle cx="728" cy="322" r="19" stroke="#ffd45e" stroke-width=".8" fill="none" opacity=".35"/><circle cx="754" cy="322" r="19" stroke="#171b22" stroke-width="2.6" fill="none"/><circle cx="754" cy="322" r="19" stroke="#ffd45e" stroke-width=".8" fill="none" opacity=".35"/><circle cx="780" cy="322" r="19" stroke="#171b22" stroke-width="2.6" fill="none"/><circle cx="780" cy="322" r="19" stroke="#ffd45e" stroke-width=".8" fill="none" opacity=".35"/><circle cx="806" cy="322" r="19" stroke="#171b22" stroke-width="2.6" fill="none"/><circle cx="806" cy="322" r="19" stroke="#ffd45e" stroke-width=".8" fill="none" opacity=".35"/><line x1="14" y1="335" x2="18" y2="331" stroke="#171b22" stroke-width="2"/><line x1="44" y1="328" x2="48" y2="324" stroke="#171b22" stroke-width="2"/><line x1="58" y1="340" x2="62" y2="336" stroke="#171b22" stroke-width="2"/><line x1="95" y1="331" x2="99" y2="327" stroke="#171b22" stroke-width="2"/><line x1="123" y1="326" x2="127" y2="322" stroke="#171b22" stroke-width="2"/><line x1="136" y1="340" x2="140" y2="336" stroke="#171b22" stroke-width="2"/><line x1="138" y1="327" x2="142" y2="323" stroke="#171b22" stroke-width="2"/><line x1="167" y1="333" x2="171" y2="329" stroke="#171b22" stroke-width="2"/><line x1="194" y1="335" x2="198" y2="331" stroke="#171b22" stroke-width="2"/><line x1="249" y1="334" x2="253" y2="330" stroke="#171b22" stroke-width="2"/><line x1="258" y1="341" x2="262" y2="337" stroke="#171b22" stroke-width="2"/><line x1="298" y1="337" x2="302" y2="333" stroke="#171b22" stroke-width="2"/><line x1="328" y1="332" x2="332" y2="328" stroke="#171b22" stroke-width="2"/><line x1="356" y1="328" x2="360" y2="324" stroke="#171b22" stroke-width="2"/><line x1="379" y1="334" x2="383" y2="330" stroke="#171b22" stroke-width="2"/><line x1="371" y1="326" x2="375" y2="322" stroke="#171b22" stroke-width="2"/><line x1="400" y1="332" x2="404" y2="328" stroke="#171b22" stroke-width="2"/><line x1="426" y1="333" x2="430" y2="329" stroke="#171b22" stroke-width="2"/><line x1="453" y1="333" x2="457" y2="329" stroke="#171b22" stroke-width="2"/><line x1="510" y1="333" x2="514" y2="329" stroke="#171b22" stroke-width="2"/><line x1="531" y1="338" x2="535" y2="334" stroke="#171b22" stroke-width="2"/><line x1="539" y1="340" x2="543" y2="336" stroke="#171b22" stroke-width="2"/><line x1="559" y1="336" x2="563" y2="332" stroke="#171b22" stroke-width="2"/><line x1="581" y1="330" x2="585" y2="326" stroke="#171b22" stroke-width="2"/><line x1="606" y1="329" x2="610" y2="325" stroke="#171b22" stroke-width="2"/><line x1="668" y1="327" x2="672" y2="323" stroke="#171b22" stroke-width="2"/><line x1="670" y1="340" x2="674" y2="336" stroke="#171b22" stroke-width="2"/><line x1="692" y1="338" x2="696" y2="334" stroke="#171b22" stroke-width="2"/><line x1="728" y1="341" x2="732" y2="337" stroke="#171b22" stroke-width="2"/><line x1="770" y1="332" x2="774" y2="328" stroke="#171b22" stroke-width="2"/><line x1="782" y1="341" x2="786" y2="337" stroke="#171b22" stroke-width="2"/><line x1="824" y1="327" x2="828" y2="323" stroke="#171b22" stroke-width="2"/>
      <rect x="0" y="440" width="800" height="60" fill="#090b0f"/>
  <rect width="800" height="500" fill="url(#vig)"/>
  <rect width="800" height="500" filter="url(#grain)" opacity=".8"/>
</svg>