<svg xmlns="http://www.w3.org/2000/svg" viewBox="0 0 800 500" role="img" preserveAspectRatio="xMidYMid slice">
  <defs><linearGradient id="sky" x1="0" y1="0" x2="0" y2="1">
      <stop offset="0" stop-color="#101c2e"/><stop offset=".45" stop-color="#2c4a63"/>
      <stop offset=".78" stop-color="#7793ab"/><stop offset="1" stop-color="#f2c9a0"/>
    </linearGradient>
    <radialGradient id="sunglow" cx=".5" cy=".5" r=".5">
      <stop offset="0" stop-color="#f2c9a0" stop-opacity=".9"/>
      <stop offset="1" stop-color="#f2c9a0" stop-opacity="0"/>
    </radialGradient>
    <radialGradient id="vig" cx=".5" cy=".42" r=".75">
      <stop offset=".55" stop-color="#000" stop-opacity="0"/>
      <stop offset="1" stop-color="#000" stop-opacity=".38"/>
    </radialGradient>
    <filter id="grain"><feTurbulence type="fractalNoise" baseFrequency="0.8" numOctaves="2" stitchTiles="stitch"/>
      <feColorMatrix type="matrix" values="0 0 0 0 0 0 0 0 0 0 0 0 0 0 0 0 0 0 0.05 0"/></filter></defs>
  <rect width="800" height="500" fill="url(#sky)"/><circle cx="700" cy="200" r="115" fill="url(#sunglow)"/><circle cx="700" cy="200" r="36" fill="#ffd9a0"/>
  <ellipse cx="594" cy="103" rx="98" ry="14" fill="#fff" opacity="0.06"/><ellipse cx="626" cy="109" rx="65" ry="10" fill="#fff" opacity="0.05"/><ellipse cx="434" cy="87" rx="82" ry="11" fill="#fff" opacity="0.06"/><ellipse cx="461" cy="93" rx="54" ry="9" fill="#fff" opacity="0.05"/><ellipse cx="613" cy="134" rx="95" ry="13" fill="#fff" opacity="0.06"/><ellipse cx="644" cy="140" rx="63" ry="10" fill="#fff" opacity="0.05"/>
  <path d="M0 340 Q 176 292 360 330 T 800 322 V440 H0 Z" fill="#0d1016" opacity=".72"/><path d="M0 372 Q 240 336 480 366 T 800 356 V440 H0 Z" fill="#0b0d12" opacity=".92"/><g transform="translate(80 440) scale(1.0 1.0)" fill="#101318" stroke="#101318">
      <path d="M0 0 C 2 -18 4 -34 10 -46" stroke-width="5" fill="none" stroke-linecap="round"/>
      <path d="M6 -28 C 14 -36 22 -42 34 -47" stroke-width="3.4" fill="none" stroke-linecap="round"/>
      <path d="M8 -34 C 2 -42 -8 -48 -20 -51" stroke-width="3.4" fill="none" stroke-linecap="round"/>
      <path d="M-34 -50 C -20 -62 24 -64 44 -52 C 30 -46 -18 -44 -34 -50 Z"/>
      <path d="M-24 -56 C -12 -64 18 -65 30 -58" opacity=".9"/>
    </g><path d="M600.0 105 q5.0 -7.0 10.0 0 q5.0 -7.0 10.0 0" stroke="#101318" stroke-width="2.0" fill="none" stroke-linecap="round"/><path d="M626.0 95 q5.0 -7.0 10.0 0 q5.0 -7.0 10.0 0" stroke="#101318" stroke-width="2.0" fill="none" stroke-linecap="round"/><path d="M652.0 105 q5.0 -7.0 10.0 0 q5.0 -7.0 10.0 0" stroke="#101318" stroke-width="2.0" fill="none" stroke-linecap="round"/>
      <rect x="172" y="242" width="456" height="12" fill="#171b22"/><line x1="172" y1="242" x2="628" y2="242" stroke="#ffb066" stroke-width="1.6" opacity="0.5"/>
      <rect x="172" y="276" width="456" height="8" fill="#171b22"/>
      <line x1="180" y1="276" x2="235" y2="254" stroke="#171b22" stroke-width="4"/><line x1="235" y1="254" x2="290" y2="276" stroke="#171b22" stroke-width="4"/><line x1="290" y1="276" x2="345" y2="254" stroke="#171b22" stroke-width="4"/><line x1="345" y1="254" x2="400" y2="276" stroke="#171b22" stroke-width="4"/><line x1="400" y1="276" x2="455" y2="254" stroke="#171b22" stroke-width="4"/><line x1="455" y1="254" x2="510" y2="276" stroke="#171b22" stroke-width="4"/><line x1="510" y1="276" x2="565" y2="254" stroke="#171b22" stroke-width="4"/><line x1="565" y1="254" x2="620" y2="276" stroke="#171b22" stroke-width="4"/>
      <rect x="172" y="250" width="12" height="190" fill="#101318"/>
      <rect x="616" y="250" width="12" height="190" fill="#101318"/>
      <rect x="160" y="432" width="36" height="8" fill="#101318"/>
      <rect x="604" y="432" width="36" height="8" fill="#101318"/>
      <rect x="0" y="440" width="800" height="60" fill="#090b0f"/>
  <rect width="800" height="500" fill="url(#vig)"/>
  <rect width="800" height="500" filter="url(#grain)" opacity=".8"/>
</svg>