<svg xmlns="http://www.w3.org/2000/svg" viewBox="0 0 800 500" role="img" preserveAspectRatio="xMidYMid slice">
  <defs><linearGradient id="sky" x1="0" y1="0" x2="0" y2="1">
      <stop offset="0" stop-color="#120f1a"/><stop offset=".45" stop-color="#3d1f26"/>
      <stop offset=".78" stop-color="#8a3b2e"/><stop offset="1" stop-color="#ff8a4d"/>
    </linearGradient>
    <radialGradient id="sunglow" cx=".5" cy=".5" r=".5">
      <stop offset="0" stop-color="#ff8a4d" stop-opacity=".9"/>
      <stop offset="1" stop-color="#ff8a4d" stop-opacity="0"/>
    </radialGradient>
    <radialGradient id="vig" cx=".5" cy=".42" r=".75">
      <stop offset=".55" stop-color="#000" stop-opacity="0"/>
      <stop offset="1" stop-color="#000" stop-opacity=".38"/>
    </radialGradient>
    <filter id="grain"><feTurbulence type="fractalNoise" baseFrequency="0.8" numOctaves="2" stitchTiles="stitch"/>
      <feColorMatrix type="matrix" values="0 0 0 0 0 0 0 0 0 0 0 0 0 0 0 0 0 0 0.05 0"/></filter></defs>
  <rect width="800" height="500" fill="url(#sky)"/><circle cx="150" cy="235" r="134" fill="url(#sunglow)"/><circle cx="150" cy="235" r="42" fill="#ffd9a0"/>
  <ellipse cx="391" cy="69" rx="110" ry="15" fill="#fff" opacity="0.06"/><ellipse cx="427" cy="75" rx="73" ry="12" fill="#fff" opacity="0.05"/><ellipse cx="726" cy="56" rx="69" ry="9" fill="#fff" opacity="0.06"/><ellipse cx="749" cy="62" rx="46" ry="7" fill="#fff" opacity="0.05"/><ellipse cx="608" cy="62" rx="106" ry="15" fill="#fff" opacity="0.06"/><ellipse cx="643" cy="68" rx="70" ry="11" fill="#fff" opacity="0.05"/>
  <path d="M0 340 Q 176 292 360 330 T 800 322 V440 H0 Z" fill="#0d1016" opacity=".72"/><path d="M0 372 Q 240 336 480 366 T 800 356 V440 H0 Z" fill="#0b0d12" opacity=".92"/><g transform="translate(660 440) scale(-1.0 1.0)" fill="#101318" stroke="#101318">
      <path d="M0 0 C 2 -18 4 -34 10 -46" stroke-width="5" fill="none" stroke-linecap="round"/>
      <path d="M6 -28 C 14 -36 22 -42 34 -47" stroke-width="3.4" fill="none" stroke-linecap="round"/>
      <path d="M8 -34 C 2 -42 -8 -48 -20 -51" stroke-width="3.4" fill="none" stroke-linecap="round"/>
      <path d="M-34 -50 C -20 -62 24 -64 44 -52 C 30 -46 -18 -44 -34 -50 Z"/>
      <path d="M-24 -56 C -12 -64 18 -65 30 -58" opacity=".9"/>
    </g><path d="M220.0 110 q5.0 -7.0 10.0 0 q5.0 -7.0 10.0 0" stroke="#101318" stroke-width="2.0" fill="none" stroke-linecap="round"/><path d="M246.0 100 q5.0 -7.0 10.0 0 q5.0 -7.0 10.0 0" stroke="#101318" stroke-width="2.0" fill="none" stroke-linecap="round"/><path d="M272.0 110 q5.0 -7.0 10.0 0 q5.0 -7.0 10.0 0" stroke="#101318" stroke-width="2.0" fill="none" stroke-linecap="round"/>
      <line x1="0" y1="322" x2="800" y2="322" stroke="#171b22" stroke-width="2.4"/><line x1="0" y1="322" x2="800" y2="322" stroke="#ffd45e" stroke-width=".8" opacity=".4"/><line x1="0" y1="340" x2="800" y2="340" stroke="#171b22" stroke-width="2.4"/><line x1="0" y1="340" x2="800" y2="340" stroke="#ffd45e" stroke-width=".8" opacity=".4"/><line x1="0" y1="358" x2="800" y2="358" stroke="#171b22" stroke-width="2.4"/><line x1="0" y1="358" x2="800" y2="358" stroke="#ffd45e" stroke-width=".8" opacity=".4"/><line x1="0" y1="376" x2="800" y2="376" stroke="#171b22" stroke-width="2.4"/><line x1="0" y1="376" x2="800" y2="376" stroke="#ffd45e" stroke-width=".8" opacity=".4"/><line x1="0" y1="394" x2="800" y2="394" stroke="#171b22" stroke-width="2.4"/><line x1="0" y1="394" x2="800" y2="394" stroke="#ffd45e" stroke-width=".8" opacity=".4"/><line x1="0" y1="412" x2="800" y2="412" stroke="#171b22" stroke-width="2.4"/><line x1="0" y1="412" x2="800" y2="412" stroke="#ffd45e" stroke-width=".8" opacity=".4"/><rect x="76.0" y="308" width="8" height="132" fill="#171b22"/><rect x="74.5" y="304" width="11" height="5" rx="2" fill="#171b22"/><line x1="76.0" y1="308" x2="76.0" y2="440" stroke="#ffd45e" stroke-width="1" opacity=".35"/><rect x="236.0" y="308" width="8" height="132" fill="#171b22"/><rect x="234.5" y="304" width="11" height="5" rx="2" fill="#171b22"/><line x1="236.0" y1="308" x2="236.0" y2="440" stroke="#ffd45e" stroke-width="1" opacity=".35"/><rect x="396.0" y="308" width="8" height="132" fill="#171b22"/><rect x="394.5" y="304" width="11" height="5" rx="2" fill="#171b22"/><line x1="396.0" y1="308" x2="396.0" y2="440" stroke="#ffd45e" stroke-width="1" opacity=".35"/><rect x="556.0" y="308" width="8" height="132" fill="#171b22"/><rect x="554.5" y="304" width="11" height="5" rx="2" fill="#171b22"/><line x1="556.0" y1="308" x2="556.0" y2="440" stroke="#ffd45e" stroke-width="1" opacity=".35"/><rect x="716.0" y="308" width="8" height="132" fill="#171b22"/><rect x="714.5" y="304" width="11" height="5" rx="2" fill="#171b22"/><line x1="716.0" y1="308" x2="716.0" y2="440" stroke="#ffd45e" stroke-width="1" opacity=".35"/><circle cx="80" cy="322" r="4" fill="#101318"/><circle cx="80" cy="340" r="4" fill="#101318"/><circle cx="80" cy="358" r="4" fill="#101318"/><circle cx="80" cy="376" r="4" fill="#101318"/><circle cx="80" cy="394" r="4" fill="#101318"/><circle cx="80" cy="412" r="4" fill="#101318"/><circle cx="240" cy="322" r="4" fill="#101318"/><circle cx="240" cy="340" r="4" fill="#101318"/><circle cx="240" cy="358" r="4" fill="#101318"/><circle cx="240" cy="376" r="4" fill="#101318"/><circle cx="240" cy="394" r="4" fill="#101318"/><circle cx="240" cy="412" r="4" fill="#101318"/><circle cx="400" cy="322" r="4" fill="#101318"/><circle cx="400" cy="340" r="4" fill="#101318"/><circle cx="400" cy="358" r="4" fill="#101318"/><circle cx="400" cy="376" r="4" fill="#101318"/><circle cx="400" cy="394" r="4" fill="#101318"/><circle cx="400" cy="412" r="4" fill="#101318"/><circle cx="560" cy="322" r="4" fill="#101318"/><circle cx="560" cy="340" r="4" fill="#101318"/><circle cx="560" cy="358" r="4" fill="#101318"/><circle cx="560" cy="376" r="4" fill="#101318"/><circle cx="560" cy="394" r="4" fill="#101318"/><circle cx="560" cy="412" r="4" fill="#101318"/><circle cx="720" cy="322" r="4" fill="#101318"/><circle cx="720" cy="340" r="4" fill="#101318"/><circle cx="720" cy="358" r="4" fill="#101318"/><circle cx="720" cy="376" r="4" fill="#101318"/><circle cx="720" cy="394" r="4" fill="#101318"/><circle cx="720" cy="412" r="4" fill="#101318"/><g><circle cx="520" cy="340" r="26" fill="url(#sunglow)" opacity=".9"/>
      <path d="M520 324 l4 10 10-2 -7 8 7 8 -10-2 -4 10 -4-10 -10 2 7-8 -7-8 10 2 z" fill="#ffe1a6"/></g>
      <rect x="0" y="440" width="800" height="60" fill="#090b0f"/>
  <rect width="800" height="500" fill="url(#vig)"/>
  <rect width="800" height="500" filter="url(#grain)" opacity=".8"/>
</svg>