<svg xmlns="http://www.w3.org/2000/svg" viewBox="0 0 800 500" role="img" preserveAspectRatio="xMidYMid slice">
  <defs><linearGradient id="sky" x1="0" y1="0" x2="0" y2="1">
      <stop offset="0" stop-color="#141a26"/><stop offset=".45" stop-color="#4a2c1e"/>
      <stop offset=".78" stop-color="#c96a2a"/><stop offset="1" stop-color="#ffb066"/>
    </linearGradient>
    <radialGradient id="sunglow" cx=".5" cy=".5" r=".5">
      <stop offset="0" stop-color="#ffb066" stop-opacity=".9"/>
      <stop offset="1" stop-color="#ffb066" stop-opacity="0"/>
    </radialGradient>
    <radialGradient id="vig" cx=".5" cy=".42" r=".75">
      <stop offset=".55" stop-color="#000" stop-opacity="0"/>
      <stop offset="1" stop-color="#000" stop-opacity=".38"/>
    </radialGradient>
    <filter id="grain"><feTurbulence type="fractalNoise" baseFrequency="0.8" numOctaves="2" stitchTiles="stitch"/>
      <feColorMatrix type="matrix" values="0 0 0 0 0 0 0 0 0 0 0 0 0 0 0 0 0 0 0.05 0"/></filter></defs>
  <rect width="800" height="500" fill="url(#sky)"/><circle cx="640" cy="250" r="128" fill="url(#sunglow)"/><circle cx="640" cy="250" r="40" fill="#ffd9a0"/>
  <ellipse cx="697" cy="82" rx="105" ry="15" fill="#fff" opacity="0.06"/><ellipse cx="732" cy="88" rx="70" ry="11" fill="#fff" opacity="0.05"/><ellipse cx="727" cy="168" rx="127" ry="18" fill="#fff" opacity="0.06"/><ellipse cx="769" cy="174" rx="84" ry="14" fill="#fff" opacity="0.05"/><ellipse cx="89" cy="157" rx="119" ry="17" fill="#fff" opacity="0.06"/><ellipse cx="128" cy="163" rx="79" ry="13" fill="#fff" opacity="0.05"/>
  <path d="M0 340 Q 176 292 360 330 T 800 322 V440 H0 Z" fill="#0d1016" opacity=".72"/><path d="M0 372 Q 240 336 480 366 T 800 356 V440 H0 Z" fill="#0b0d12" opacity=".92"/><g transform="translate(560 440) scale(1.2 1.2)" fill="#101318" stroke="#101318">
      <path d="M0 0 C 2 -18 4 -34 10 -46" stroke-width="5" fill="none" stroke-linecap="round"/>
      <path d="M6 -28 C 14 -36 22 -42 34 -47" stroke-width="3.4" fill="none" stroke-linecap="round"/>
      <path d="M8 -34 C 2 -42 -8 -48 -20 -51" stroke-width="3.4" fill="none" stroke-linecap="round"/>
      <path d="M-34 -50 C -20 -62 24 -64 44 -52 C 30 -46 -18 -44 -34 -50 Z"/>
      <path d="M-24 -56 C -12 -64 18 -65 30 -58" opacity=".9"/>
    </g><path d="M150.0 130 q5.0 -7.0 10.0 0 q5.0 -7.0 10.0 0" stroke="#101318" stroke-width="2.0" fill="none" stroke-linecap="round"/><path d="M176.0 120 q5.0 -7.0 10.0 0 q5.0 -7.0 10.0 0" stroke="#101318" stroke-width="2.0" fill="none" stroke-linecap="round"/><path d="M202.0 130 q5.0 -7.0 10.0 0 q5.0 -7.0 10.0 0" stroke="#101318" stroke-width="2.0" fill="none" stroke-linecap="round"/>
      <path d="M12 440 V316 L16 300 L20 316 V440 Z" fill="#171b22"/><path d="M12 440 V316 L16 300" stroke="#ffb066" stroke-width="1" fill="none" opacity=".3"/><path d="M32 440 V316 L36 300 L40 316 V440 Z" fill="#171b22"/><path d="M32 440 V316 L36 300" stroke="#ffb066" stroke-width="1" fill="none" opacity=".3"/><path d="M52 440 V316 L56 300 L60 316 V440 Z" fill="#171b22"/><path d="M52 440 V316 L56 300" stroke="#ffb066" stroke-width="1" fill="none" opacity=".3"/><path d="M72 440 V316 L76 300 L80 316 V440 Z" fill="#171b22"/><path d="M72 440 V316 L76 300" stroke="#ffb066" stroke-width="1" fill="none" opacity=".3"/><path d="M92 440 V316 L96 300 L100 316 V440 Z" fill="#171b22"/><path d="M92 440 V316 L96 300" stroke="#ffb066" stroke-width="1" fill="none" opacity=".3"/><path d="M112 440 V316 L116 300 L120 316 V440 Z" fill="#171b22"/><path d="M112 440 V316 L116 300" stroke="#ffb066" stroke-width="1" fill="none" opacity=".3"/><path d="M132 440 V316 L136 300 L140 316 V440 Z" fill="#171b22"/><path d="M132 440 V316 L136 300" stroke="#ffb066" stroke-width="1" fill="none" opacity=".3"/><path d="M152 440 V316 L156 300 L160 316 V440 Z" fill="#171b22"/><path d="M152 440 V316 L156 300" stroke="#ffb066" stroke-width="1" fill="none" opacity=".3"/><path d="M172 440 V316 L176 300 L180 316 V440 Z" fill="#171b22"/><path d="M172 440 V316 L176 300" stroke="#ffb066" stroke-width="1" fill="none" opacity=".3"/><path d="M192 440 V316 L196 300 L200 316 V440 Z" fill="#171b22"/><path d="M192 440 V316 L196 300" stroke="#ffb066" stroke-width="1" fill="none" opacity=".3"/><path d="M212 440 V316 L216 300 L220 316 V440 Z" fill="#171b22"/><path d="M212 440 V316 L216 300" stroke="#ffb066" stroke-width="1" fill="none" opacity=".3"/><path d="M232 440 V316 L236 300 L240 316 V440 Z" fill="#171b22"/><path d="M232 440 V316 L236 300" stroke="#ffb066" stroke-width="1" fill="none" opacity=".3"/><path d="M252 440 V316 L256 300 L260 316 V440 Z" fill="#171b22"/><path d="M252 440 V316 L256 300" stroke="#ffb066" stroke-width="1" fill="none" opacity=".3"/><path d="M272 440 V316 L276 300 L280 316 V440 Z" fill="#171b22"/><path d="M272 440 V316 L276 300" stroke="#ffb066" stroke-width="1" fill="none" opacity=".3"/><path d="M292 440 V316 L296 300 L300 316 V440 Z" fill="#171b22"/><path d="M292 440 V316 L296 300" stroke="#ffb066" stroke-width="1" fill="none" opacity=".3"/><path d="M312 440 V316 L316 300 L320 316 V440 Z" fill="#171b22"/><path d="M312 440 V316 L316 300" stroke="#ffb066" stroke-width="1" fill="none" opacity=".3"/><path d="M332 440 V316 L336 300 L340 316 V440 Z" fill="#171b22"/><path d="M332 440 V316 L336 300" stroke="#ffb066" stroke-width="1" fill="none" opacity=".3"/><path d="M352 440 V316 L356 300 L360 316 V440 Z" fill="#171b22"/><path d="M352 440 V316 L356 300" stroke="#ffb066" stroke-width="1" fill="none" opacity=".3"/><path d="M372 440 V316 L376 300 L380 316 V440 Z" fill="#171b22"/><path d="M372 440 V316 L376 300" stroke="#ffb066" stroke-width="1" fill="none" opacity=".3"/><path d="M392 440 V316 L396 300 L400 316 V440 Z" fill="#171b22"/><path d="M392 440 V316 L396 300" stroke="#ffb066" stroke-width="1" fill="none" opacity=".3"/><path d="M412 440 V316 L416 300 L420 316 V440 Z" fill="#171b22"/><path d="M412 440 V316 L416 300" stroke="#ffb066" stroke-width="1" fill="none" opacity=".3"/><path d="M432 440 V316 L436 300 L440 316 V440 Z" fill="#171b22"/><path d="M432 440 V316 L436 300" stroke="#ffb066" stroke-width="1" fill="none" opacity=".3"/><path d="M452 440 V316 L456 300 L460 316 V440 Z" fill="#171b22"/><path d="M452 440 V316 L456 300" stroke="#ffb066" stroke-width="1" fill="none" opacity=".3"/><path d="M472 440 V316 L476 300 L480 316 V440 Z" fill="#171b22"/><path d="M472 440 V316 L476 300" stroke="#ffb066" stroke-width="1" fill="none" opacity=".3"/><path d="M492 440 V316 L496 300 L500 316 V440 Z" fill="#171b22"/><path d="M492 440 V316 L496 300" stroke="#ffb066" stroke-width="1" fill="none" opacity=".3"/><path d="M512 440 V316 L516 300 L520 316 V440 Z" fill="#171b22"/><path d="M512 440 V316 L516 300" stroke="#ffb066" stroke-width="1" fill="none" opacity=".3"/><path d="M532 440 V316 L536 300 L540 316 V440 Z" fill="#171b22"/><path d="M532 440 V316 L536 300" stroke="#ffb066" stroke-width="1" fill="none" opacity=".3"/><path d="M552 440 V316 L556 300 L560 316 V440 Z" fill="#171b22"/><path d="M552 440 V316 L556 300" stroke="#ffb066" stroke-width="1" fill="none" opacity=".3"/><path d="M572 440 V316 L576 300 L580 316 V440 Z" fill="#171b22"/><path d="M572 440 V316 L576 300" stroke="#ffb066" stroke-width="1" fill="none" opacity=".3"/><path d="M592 440 V316 L596 300 L600 316 V440 Z" fill="#171b22"/><path d="M592 440 V316 L596 300" stroke="#ffb066" stroke-width="1" fill="none" opacity=".3"/><path d="M612 440 V316 L616 300 L620 316 V440 Z" fill="#171b22"/><path d="M612 440 V316 L616 300" stroke="#ffb066" stroke-width="1" fill="none" opacity=".3"/><path d="M632 440 V316 L636 300 L640 316 V440 Z" fill="#171b22"/><path d="M632 440 V316 L636 300" stroke="#ffb066" stroke-width="1" fill="none" opacity=".3"/><path d="M652 440 V316 L656 300 L660 316 V440 Z" fill="#171b22"/><path d="M652 440 V316 L656 300" stroke="#ffb066" stroke-width="1" fill="none" opacity=".3"/><path d="M672 440 V316 L676 300 L680 316 V440 Z" fill="#171b22"/><path d="M672 440 V316 L676 300" stroke="#ffb066" stroke-width="1" fill="none" opacity=".3"/><path d="M692 440 V316 L696 300 L700 316 V440 Z" fill="#171b22"/><path d="M692 440 V316 L696 300" stroke="#ffb066" stroke-width="1" fill="none" opacity=".3"/><path d="M712 440 V316 L716 300 L720 316 V440 Z" fill="#171b22"/><path d="M712 440 V316 L716 300" stroke="#ffb066" stroke-width="1" fill="none" opacity=".3"/><path d="M732 440 V316 L736 300 L740 316 V440 Z" fill="#171b22"/><path d="M732 440 V316 L736 300" stroke="#ffb066" stroke-width="1" fill="none" opacity=".3"/><path d="M752 440 V316 L756 300 L760 316 V440 Z" fill="#171b22"/><path d="M752 440 V316 L756 300" stroke="#ffb066" stroke-width="1" fill="none" opacity=".3"/><path d="M772 440 V316 L776 300 L780 316 V440 Z" fill="#171b22"/><path d="M772 440 V316 L776 300" stroke="#ffb066" stroke-width="1" fill="none" opacity=".3"/><path d="M792 440 V316 L796 300 L800 316 V440 Z" fill="#171b22"/><path d="M792 440 V316 L796 300" stroke="#ffb066" stroke-width="1" fill="none" opacity=".3"/>
      <rect x="0" y="334" width="800" height="9" fill="#101318"/><line x1="0" y1="334" x2="800" y2="334" stroke="#ffb066" stroke-width="1.6" opacity="0.5"/>
      <rect x="0" y="396" width="800" height="9" fill="#101318"/>
      <rect x="0" y="440" width="800" height="60" fill="#090b0f"/>
  <rect width="800" height="500" fill="url(#vig)"/>
  <rect width="800" height="500" filter="url(#grain)" opacity=".8"/>
</svg>