<svg xmlns="http://www.w3.org/2000/svg" viewBox="0 0 800 500" role="img" preserveAspectRatio="xMidYMid slice">
  <defs><linearGradient id="sky" x1="0" y1="0" x2="0" y2="1">
      <stop offset="0" stop-color="#141a26"/><stop offset=".45" stop-color="#4a2c1e"/>
      <stop offset=".78" stop-color="#c96a2a"/><stop offset="1" stop-color="#ffb066"/>
    </linearGradient>
    <radialGradient id="sunglow" cx=".5" cy=".5" r=".5">
      <stop offset="0" stop-color="#ffb066" stop-opacity=".9"/>
      <stop offset="1" stop-color="#ffb066" stop-opacity="0"/>
    </radialGradient>
    <radialGradient id="vig" cx=".5" cy=".42" r=".75">
      <stop offset=".55" stop-color="#000" stop-opacity="0"/>
      <stop offset="1" stop-color="#000" stop-opacity=".38"/>
    </radialGradient>
    <filter id="grain"><feTurbulence type="fractalNoise" baseFrequency="0.8" numOctaves="2" stitchTiles="stitch"/>
      <feColorMatrix type="matrix" values="0 0 0 0 0 0 0 0 0 0 0 0 0 0 0 0 0 0 0.05 0"/></filter></defs>
  <rect width="800" height="500" fill="url(#sky)"/><circle cx="100" cy="220" r="128" fill="url(#sunglow)"/><circle cx="100" cy="220" r="40" fill="#ffd9a0"/>
  <ellipse cx="273" cy="51" rx="126" ry="18" fill="#fff" opacity="0.06"/><ellipse cx="315" cy="57" rx="84" ry="14" fill="#fff" opacity="0.05"/><ellipse cx="97" cy="70" rx="90" ry="12" fill="#fff" opacity="0.06"/><ellipse cx="127" cy="76" rx="60" ry="10" fill="#fff" opacity="0.05"/><ellipse cx="77" cy="57" rx="78" ry="11" fill="#fff" opacity="0.06"/><ellipse cx="103" cy="63" rx="52" ry="8" fill="#fff" opacity="0.05"/>
  <path d="M0 340 Q 176 292 360 330 T 800 322 V440 H0 Z" fill="#0d1016" opacity=".72"/><path d="M0 372 Q 240 336 480 366 T 800 356 V440 H0 Z" fill="#0b0d12" opacity=".92"/><g transform="translate(660 440) scale(-1.1 1.1)" fill="#101318" stroke="#101318">
      <path d="M0 0 C 2 -18 4 -34 10 -46" stroke-width="5" fill="none" stroke-linecap="round"/>
      <path d="M6 -28 C 14 -36 22 -42 34 -47" stroke-width="3.4" fill="none" stroke-linecap="round"/>
      <path d="M8 -34 C 2 -42 -8 -48 -20 -51" stroke-width="3.4" fill="none" stroke-linecap="round"/>
      <path d="M-34 -50 C -20 -62 24 -64 44 -52 C 30 -46 -18 -44 -34 -50 Z"/>
      <path d="M-24 -56 C -12 -64 18 -65 30 -58" opacity=".9"/>
    </g><path d="M560.0 115 q5.0 -7.0 10.0 0 q5.0 -7.0 10.0 0" stroke="#101318" stroke-width="2.0" fill="none" stroke-linecap="round"/><path d="M586.0 105 q5.0 -7.0 10.0 0 q5.0 -7.0 10.0 0" stroke="#101318" stroke-width="2.0" fill="none" stroke-linecap="round"/><path d="M612.0 115 q5.0 -7.0 10.0 0 q5.0 -7.0 10.0 0" stroke="#101318" stroke-width="2.0" fill="none" stroke-linecap="round"/>
      <rect x="148" y="268" width="44" height="172" fill="#101318"/>
      <rect x="142" y="256" width="56" height="14" rx="3" fill="#101318"/><line x1="142" y1="256" x2="198" y2="256" stroke="#ffd45e" stroke-width="1.6" opacity="0.5"/>
      <rect x="200" y="296" width="392" height="12" fill="#171b22"/><line x1="200" y1="296" x2="592" y2="296" stroke="#ffd45e" stroke-width="1.6" opacity="0.5"/>
      <rect x="200" y="424" width="392" height="10" fill="#171b22"/>
      <rect x="200" y="296" width="10" height="138" fill="#171b22"/>
      <rect x="582" y="296" width="10" height="138" fill="#171b22"/>
      <line x1="226" y1="314" x2="226" y2="424" stroke="#171b22" stroke-width="5"/><line x1="250" y1="314" x2="250" y2="424" stroke="#171b22" stroke-width="5"/><line x1="274" y1="314" x2="274" y2="424" stroke="#171b22" stroke-width="5"/><line x1="298" y1="314" x2="298" y2="424" stroke="#171b22" stroke-width="5"/><line x1="322" y1="314" x2="322" y2="424" stroke="#171b22" stroke-width="5"/><line x1="346" y1="314" x2="346" y2="424" stroke="#171b22" stroke-width="5"/><line x1="370" y1="314" x2="370" y2="424" stroke="#171b22" stroke-width="5"/><line x1="394" y1="314" x2="394" y2="424" stroke="#171b22" stroke-width="5"/><line x1="418" y1="314" x2="418" y2="424" stroke="#171b22" stroke-width="5"/><line x1="442" y1="314" x2="442" y2="424" stroke="#171b22" stroke-width="5"/><line x1="466" y1="314" x2="466" y2="424" stroke="#171b22" stroke-width="5"/><line x1="490" y1="314" x2="490" y2="424" stroke="#171b22" stroke-width="5"/><line x1="514" y1="314" x2="514" y2="424" stroke="#171b22" stroke-width="5"/><line x1="538" y1="314" x2="538" y2="424" stroke="#171b22" stroke-width="5"/><line x1="562" y1="314" x2="562" y2="424" stroke="#171b22" stroke-width="5"/>
      <line x1="206" y1="420" x2="586" y2="306" stroke="#171b22" stroke-width="4" opacity=".85"/>
      <circle cx="260" cy="438" r="7" fill="#101318"/><circle cx="530" cy="438" r="7" fill="#101318"/>
      <line x1="140" y1="445" x2="800" y2="445" stroke="#171b22" stroke-width="3"/>
      <rect x="0" y="440" width="800" height="60" fill="#090b0f"/>
  <rect width="800" height="500" fill="url(#vig)"/>
  <rect width="800" height="500" filter="url(#grain)" opacity=".8"/>
</svg>