<svg xmlns="http://www.w3.org/2000/svg" viewBox="0 0 800 500" role="img" preserveAspectRatio="xMidYMid slice">
  <defs><linearGradient id="sky" x1="0" y1="0" x2="0" y2="1">
      <stop offset="0" stop-color="#120f1a"/><stop offset=".45" stop-color="#3d1f26"/>
      <stop offset=".78" stop-color="#8a3b2e"/><stop offset="1" stop-color="#ff8a4d"/>
    </linearGradient>
    <radialGradient id="sunglow" cx=".5" cy=".5" r=".5">
      <stop offset="0" stop-color="#ff8a4d" stop-opacity=".9"/>
      <stop offset="1" stop-color="#ff8a4d" stop-opacity="0"/>
    </radialGradient>
    <radialGradient id="vig" cx=".5" cy=".42" r=".75">
      <stop offset=".55" stop-color="#000" stop-opacity="0"/>
      <stop offset="1" stop-color="#000" stop-opacity=".38"/>
    </radialGradient>
    <filter id="grain"><feTurbulence type="fractalNoise" baseFrequency="0.8" numOctaves="2" stitchTiles="stitch"/>
      <feColorMatrix type="matrix" values="0 0 0 0 0 0 0 0 0 0 0 0 0 0 0 0 0 0 0.05 0"/></filter></defs>
  <rect width="800" height="500" fill="url(#sky)"/><circle cx="90" cy="215" r="96" fill="url(#sunglow)"/><circle cx="90" cy="215" r="30" fill="#ffd9a0"/>
  <ellipse cx="104" cy="150" rx="126" ry="18" fill="#fff" opacity="0.06"/><ellipse cx="146" cy="156" rx="84" ry="14" fill="#fff" opacity="0.05"/><ellipse cx="183" cy="115" rx="85" ry="12" fill="#fff" opacity="0.06"/><ellipse cx="211" cy="121" rx="56" ry="9" fill="#fff" opacity="0.05"/><ellipse cx="462" cy="94" rx="127" ry="18" fill="#fff" opacity="0.06"/><ellipse cx="504" cy="100" rx="84" ry="14" fill="#fff" opacity="0.05"/>
  <path d="M0 340 Q 176 292 360 330 T 800 322 V440 H0 Z" fill="#0d1016" opacity=".72"/><path d="M0 372 Q 240 336 480 366 T 800 356 V440 H0 Z" fill="#0b0d12" opacity=".92"/><g transform="translate(670 440) scale(-1.05 1.05)" fill="#101318" stroke="#101318">
      <path d="M0 0 C 2 -18 4 -34 10 -46" stroke-width="5" fill="none" stroke-linecap="round"/>
      <path d="M6 -28 C 14 -36 22 -42 34 -47" stroke-width="3.4" fill="none" stroke-linecap="round"/>
      <path d="M8 -34 C 2 -42 -8 -48 -20 -51" stroke-width="3.4" fill="none" stroke-linecap="round"/>
      <path d="M-34 -50 C -20 -62 24 -64 44 -52 C 30 -46 -18 -44 -34 -50 Z"/>
      <path d="M-24 -56 C -12 -64 18 -65 30 -58" opacity=".9"/>
    </g>
      <rect x="120" y="356" width="560" height="10" fill="#171b22"/><line x1="120" y1="356" x2="680" y2="356" stroke="#ffb066" stroke-width="1.4" opacity="0.4"/>
      <rect x="170" y="366" width="14" height="74" fill="#101318"/>
      <rect x="616" y="366" width="14" height="74" fill="#101318"/>
      <rect x="430" y="288" width="12" height="70" fill="#101318" transform="rotate(24 436 358)"/>
      <circle cx="400" cy="360" r="60" fill="url(#sunglow)"/>
      <line x1="400" y1="360" x2="358" y2="334" stroke="#ffd98f" stroke-width="1.9" opacity="0.66" stroke-linecap="round"/><line x1="400" y1="360" x2="359" y2="324" stroke="#ffd98f" stroke-width="2.1" opacity="0.68" stroke-linecap="round"/><line x1="400" y1="360" x2="403" y2="334" stroke="#ffd98f" stroke-width="1.0" opacity="0.60" stroke-linecap="round"/><line x1="400" y1="360" x2="407" y2="344" stroke="#ffd98f" stroke-width="2.1" opacity="0.53" stroke-linecap="round"/><line x1="400" y1="360" x2="388" y2="349" stroke="#ffd98f" stroke-width="2.4" opacity="0.81" stroke-linecap="round"/><line x1="400" y1="360" x2="445" y2="350" stroke="#ffd98f" stroke-width="1.0" opacity="0.58" stroke-linecap="round"/><line x1="400" y1="360" x2="402" y2="340" stroke="#ffd98f" stroke-width="2.3" opacity="0.60" stroke-linecap="round"/><line x1="400" y1="360" x2="351" y2="332" stroke="#ffd98f" stroke-width="1.2" opacity="0.91" stroke-linecap="round"/><line x1="400" y1="360" x2="398" y2="317" stroke="#ffd98f" stroke-width="1.5" opacity="0.67" stroke-linecap="round"/><line x1="400" y1="360" x2="387" y2="351" stroke="#ffd98f" stroke-width="2.2" opacity="0.53" stroke-linecap="round"/><line x1="400" y1="360" x2="421" y2="347" stroke="#ffd98f" stroke-width="2.4" opacity="0.89" stroke-linecap="round"/><line x1="400" y1="360" x2="444" y2="329" stroke="#ffd98f" stroke-width="1.8" opacity="0.80" stroke-linecap="round"/><line x1="400" y1="360" x2="364" y2="345" stroke="#ffd98f" stroke-width="2.2" opacity="0.51" stroke-linecap="round"/><line x1="400" y1="360" x2="460" y2="357" stroke="#ffd98f" stroke-width="1.6" opacity="0.60" stroke-linecap="round"/><line x1="400" y1="360" x2="398" y2="326" stroke="#ffd98f" stroke-width="2.4" opacity="0.61" stroke-linecap="round"/><line x1="400" y1="360" x2="381" y2="358" stroke="#ffd98f" stroke-width="2.0" opacity="0.95" stroke-linecap="round"/><line x1="400" y1="360" x2="403" y2="321" stroke="#ffd98f" stroke-width="1.8" opacity="0.81" stroke-linecap="round"/><line x1="400" y1="360" x2="366" y2="329" stroke="#ffd98f" stroke-width="1.8" opacity="0.74" stroke-linecap="round"/><line x1="400" y1="360" x2="381" y2="347" stroke="#ffd98f" stroke-width="1.5" opacity="0.91" stroke-linecap="round"/><line x1="400" y1="360" x2="382" y2="319" stroke="#ffd98f" stroke-width="1.4" opacity="0.46" stroke-linecap="round"/><line x1="400" y1="360" x2="345" y2="348" stroke="#ffd98f" stroke-width="2.1" opacity="0.61" stroke-linecap="round"/><line x1="400" y1="360" x2="432" y2="323" stroke="#ffd98f" stroke-width="2.3" opacity="0.93" stroke-linecap="round"/><line x1="400" y1="360" x2="386" y2="296" stroke="#ffd98f" stroke-width="2.3" opacity="0.72" stroke-linecap="round"/><line x1="400" y1="360" x2="439" y2="353" stroke="#ffd98f" stroke-width="1.5" opacity="0.54" stroke-linecap="round"/><line x1="400" y1="360" x2="422" y2="355" stroke="#ffd98f" stroke-width="1.1" opacity="0.84" stroke-linecap="round"/><line x1="400" y1="360" x2="433" y2="339" stroke="#ffd98f" stroke-width="2.2" opacity="0.43" stroke-linecap="round"/>
      <circle cx="400" cy="360" r="9" fill="#fff3d6"/>
      <rect x="0" y="440" width="800" height="60" fill="#090b0f"/>
  <rect width="800" height="500" fill="url(#vig)"/>
  <rect width="800" height="500" filter="url(#grain)" opacity=".8"/>
</svg>