<svg xmlns="http://www.w3.org/2000/svg" viewBox="0 0 800 500" role="img" preserveAspectRatio="xMidYMid slice">
  <defs><linearGradient id="sky" x1="0" y1="0" x2="0" y2="1">
      <stop offset="0" stop-color="#101c2e"/><stop offset=".45" stop-color="#2c4a63"/>
      <stop offset=".78" stop-color="#7793ab"/><stop offset="1" stop-color="#f2c9a0"/>
    </linearGradient>
    <radialGradient id="sunglow" cx=".5" cy=".5" r=".5">
      <stop offset="0" stop-color="#f2c9a0" stop-opacity=".9"/>
      <stop offset="1" stop-color="#f2c9a0" stop-opacity="0"/>
    </radialGradient>
    <radialGradient id="vig" cx=".5" cy=".42" r=".75">
      <stop offset=".55" stop-color="#000" stop-opacity="0"/>
      <stop offset="1" stop-color="#000" stop-opacity=".38"/>
    </radialGradient>
    <filter id="grain"><feTurbulence type="fractalNoise" baseFrequency="0.8" numOctaves="2" stitchTiles="stitch"/>
      <feColorMatrix type="matrix" values="0 0 0 0 0 0 0 0 0 0 0 0 0 0 0 0 0 0 0.05 0"/></filter></defs>
  <rect width="800" height="500" fill="url(#sky)"/><circle cx="630" cy="220" r="115" fill="url(#sunglow)"/><circle cx="630" cy="220" r="36" fill="#ffd9a0"/>
  <ellipse cx="534" cy="128" rx="107" ry="15" fill="#fff" opacity="0.06"/><ellipse cx="569" cy="134" rx="71" ry="11" fill="#fff" opacity="0.05"/><ellipse cx="333" cy="67" rx="83" ry="11" fill="#fff" opacity="0.06"/><ellipse cx="360" cy="73" rx="55" ry="9" fill="#fff" opacity="0.05"/><ellipse cx="66" cy="93" rx="124" ry="17" fill="#fff" opacity="0.06"/><ellipse cx="107" cy="99" rx="82" ry="13" fill="#fff" opacity="0.05"/>
  <defs><pattern id="dm" width="26" height="26" patternUnits="userSpaceOnUse">
        <path d="M0 13 L13 0 L26 13 L13 26 Z" stroke="#171b22" stroke-width="2" fill="none"/></pattern></defs>
      <path d="M0 340 Q 176 292 360 330 T 800 322 V440 H0 Z" fill="#0d1016" opacity=".72"/><path d="M0 372 Q 240 336 480 366 T 800 356 V440 H0 Z" fill="#0b0d12" opacity=".92"/><g transform="translate(140 440) scale(1.05 1.05)" fill="#101318" stroke="#101318">
      <path d="M0 0 C 2 -18 4 -34 10 -46" stroke-width="5" fill="none" stroke-linecap="round"/>
      <path d="M6 -28 C 14 -36 22 -42 34 -47" stroke-width="3.4" fill="none" stroke-linecap="round"/>
      <path d="M8 -34 C 2 -42 -8 -48 -20 -51" stroke-width="3.4" fill="none" stroke-linecap="round"/>
      <path d="M-34 -50 C -20 -62 24 -64 44 -52 C 30 -46 -18 -44 -34 -50 Z"/>
      <path d="M-24 -56 C -12 -64 18 -65 30 -58" opacity=".9"/>
    </g><path d="M600.0 125 q5.0 -7.0 10.0 0 q5.0 -7.0 10.0 0" stroke="#101318" stroke-width="2.0" fill="none" stroke-linecap="round"/><path d="M626.0 115 q5.0 -7.0 10.0 0 q5.0 -7.0 10.0 0" stroke="#101318" stroke-width="2.0" fill="none" stroke-linecap="round"/><path d="M652.0 125 q5.0 -7.0 10.0 0 q5.0 -7.0 10.0 0" stroke="#101318" stroke-width="2.0" fill="none" stroke-linecap="round"/>
      <rect x="0" y="316" width="800" height="124" fill="url(#dm)"/>
      <line x1="0" y1="316" x2="800" y2="316" stroke="#171b22" stroke-width="3"/><line x1="0" y1="316" x2="800" y2="316" stroke="#ffb066" stroke-width="1.6" opacity="0.5"/>
      <rect x="66.5" y="308" width="7" height="132" fill="#171b22"/><rect x="65.0" y="304" width="10" height="5" rx="2" fill="#171b22"/><line x1="66.5" y1="308" x2="66.5" y2="440" stroke="#ffb066" stroke-width="1" opacity=".35"/><rect x="216.5" y="308" width="7" height="132" fill="#171b22"/><rect x="215.0" y="304" width="10" height="5" rx="2" fill="#171b22"/><line x1="216.5" y1="308" x2="216.5" y2="440" stroke="#ffb066" stroke-width="1" opacity=".35"/><rect x="366.5" y="308" width="7" height="132" fill="#171b22"/><rect x="365.0" y="304" width="10" height="5" rx="2" fill="#171b22"/><line x1="366.5" y1="308" x2="366.5" y2="440" stroke="#ffb066" stroke-width="1" opacity=".35"/><rect x="516.5" y="308" width="7" height="132" fill="#171b22"/><rect x="515.0" y="304" width="10" height="5" rx="2" fill="#171b22"/><line x1="516.5" y1="308" x2="516.5" y2="440" stroke="#ffb066" stroke-width="1" opacity=".35"/><rect x="666.5" y="308" width="7" height="132" fill="#171b22"/><rect x="665.0" y="304" width="10" height="5" rx="2" fill="#171b22"/><line x1="666.5" y1="308" x2="666.5" y2="440" stroke="#ffb066" stroke-width="1" opacity=".35"/>
      <rect x="0" y="440" width="800" height="60" fill="#090b0f"/>
  <rect width="800" height="500" fill="url(#vig)"/>
  <rect width="800" height="500" filter="url(#grain)" opacity=".8"/>
</svg>