<svg xmlns="http://www.w3.org/2000/svg" viewBox="0 0 800 500" role="img" preserveAspectRatio="xMidYMid slice">
  <defs><linearGradient id="sky" x1="0" y1="0" x2="0" y2="1">
      <stop offset="0" stop-color="#0e1b24"/><stop offset=".45" stop-color="#1c3f4c"/>
      <stop offset=".78" stop-color="#3d7d8e"/><stop offset="1" stop-color="#a9d3dd"/>
    </linearGradient>
    <radialGradient id="sunglow" cx=".5" cy=".5" r=".5">
      <stop offset="0" stop-color="#a9d3dd" stop-opacity=".9"/>
      <stop offset="1" stop-color="#a9d3dd" stop-opacity="0"/>
    </radialGradient>
    <radialGradient id="vig" cx=".5" cy=".42" r=".75">
      <stop offset=".55" stop-color="#000" stop-opacity="0"/>
      <stop offset="1" stop-color="#000" stop-opacity=".38"/>
    </radialGradient>
    <filter id="grain"><feTurbulence type="fractalNoise" baseFrequency="0.8" numOctaves="2" stitchTiles="stitch"/>
      <feColorMatrix type="matrix" values="0 0 0 0 0 0 0 0 0 0 0 0 0 0 0 0 0 0 0.05 0"/></filter></defs>
  <rect width="800" height="500" fill="url(#sky)"/><circle cx="170" cy="230" r="109" fill="url(#sunglow)"/><circle cx="170" cy="230" r="34" fill="#ffd9a0"/>
  <ellipse cx="303" cy="125" rx="129" ry="18" fill="#fff" opacity="0.06"/><ellipse cx="346" cy="131" rx="86" ry="14" fill="#fff" opacity="0.05"/><ellipse cx="193" cy="97" rx="120" ry="17" fill="#fff" opacity="0.06"/><ellipse cx="233" cy="103" rx="80" ry="13" fill="#fff" opacity="0.05"/><ellipse cx="700" cy="124" rx="68" ry="9" fill="#fff" opacity="0.06"/><ellipse cx="722" cy="130" rx="45" ry="7" fill="#fff" opacity="0.05"/>
  <defs><pattern id="m358" width="9" height="20" patternUnits="userSpaceOnUse">
        <path d="M0 0V20 M0 0H9 M0 10H9" stroke="#171b22" stroke-width="1.6" opacity=".95"/></pattern></defs>
      <path d="M0 340 Q 176 292 360 330 T 800 322 V440 H0 Z" fill="#0d1016" opacity=".72"/><path d="M0 372 Q 240 336 480 366 T 800 356 V440 H0 Z" fill="#0b0d12" opacity=".92"/><g transform="translate(120 440) scale(1.15 1.15)" fill="#101318" stroke="#101318">
      <path d="M0 0 C 2 -18 4 -34 10 -46" stroke-width="5" fill="none" stroke-linecap="round"/>
      <path d="M6 -28 C 14 -36 22 -42 34 -47" stroke-width="3.4" fill="none" stroke-linecap="round"/>
      <path d="M8 -34 C 2 -42 -8 -48 -20 -51" stroke-width="3.4" fill="none" stroke-linecap="round"/>
      <path d="M-34 -50 C -20 -62 24 -64 44 -52 C 30 -46 -18 -44 -34 -50 Z"/>
      <path d="M-24 -56 C -12 -64 18 -65 30 -58" opacity=".9"/>
    </g><g transform="translate(690 440) scale(-0.85 0.85)" fill="#101318" stroke="#101318">
      <path d="M0 0 C 2 -18 4 -34 10 -46" stroke-width="5" fill="none" stroke-linecap="round"/>
      <path d="M6 -28 C 14 -36 22 -42 34 -47" stroke-width="3.4" fill="none" stroke-linecap="round"/>
      <path d="M8 -34 C 2 -42 -8 -48 -20 -51" stroke-width="3.4" fill="none" stroke-linecap="round"/>
      <path d="M-34 -50 C -20 -62 24 -64 44 -52 C 30 -46 -18 -44 -34 -50 Z"/>
      <path d="M-24 -56 C -12 -64 18 -65 30 -58" opacity=".9"/>
    </g><path d="M560.0 120 q5.0 -7.0 10.0 0 q5.0 -7.0 10.0 0" stroke="#101318" stroke-width="2.0" fill="none" stroke-linecap="round"/><path d="M586.0 110 q5.0 -7.0 10.0 0 q5.0 -7.0 10.0 0" stroke="#101318" stroke-width="2.0" fill="none" stroke-linecap="round"/><path d="M612.0 120 q5.0 -7.0 10.0 0 q5.0 -7.0 10.0 0" stroke="#101318" stroke-width="2.0" fill="none" stroke-linecap="round"/>
      <rect x="0" y="318" width="800" height="122" fill="url(#m358)"/>
      <rect x="0" y="312" width="800" height="7" fill="#171b22"/><line x1="0" y1="312" x2="800" y2="312" stroke="#ffd45e" stroke-width="1.6" opacity="0.5"/>
      <rect x="56.5" y="308" width="7" height="132" fill="#171b22"/><rect x="55.0" y="304" width="10" height="5" rx="2" fill="#171b22"/><line x1="56.5" y1="308" x2="56.5" y2="440" stroke="#ffd45e" stroke-width="1" opacity=".35"/><rect x="192.5" y="308" width="7" height="132" fill="#171b22"/><rect x="191.0" y="304" width="10" height="5" rx="2" fill="#171b22"/><line x1="192.5" y1="308" x2="192.5" y2="440" stroke="#ffd45e" stroke-width="1" opacity=".35"/><rect x="328.5" y="308" width="7" height="132" fill="#171b22"/><rect x="327.0" y="304" width="10" height="5" rx="2" fill="#171b22"/><line x1="328.5" y1="308" x2="328.5" y2="440" stroke="#ffd45e" stroke-width="1" opacity=".35"/><rect x="464.5" y="308" width="7" height="132" fill="#171b22"/><rect x="463.0" y="304" width="10" height="5" rx="2" fill="#171b22"/><line x1="464.5" y1="308" x2="464.5" y2="440" stroke="#ffd45e" stroke-width="1" opacity=".35"/><rect x="600.5" y="308" width="7" height="132" fill="#171b22"/><rect x="599.0" y="304" width="10" height="5" rx="2" fill="#171b22"/><line x1="600.5" y1="308" x2="600.5" y2="440" stroke="#ffd45e" stroke-width="1" opacity=".35"/><rect x="736.5" y="308" width="7" height="132" fill="#171b22"/><rect x="735.0" y="304" width="10" height="5" rx="2" fill="#171b22"/><line x1="736.5" y1="308" x2="736.5" y2="440" stroke="#ffd45e" stroke-width="1" opacity=".35"/>
      <rect x="0" y="440" width="800" height="60" fill="#090b0f"/>
  <rect width="800" height="500" fill="url(#vig)"/>
  <rect width="800" height="500" filter="url(#grain)" opacity=".8"/>
</svg>