<svg xmlns="http://www.w3.org/2000/svg" viewBox="0 0 1200 630" width="1200" height="630" role="img" aria-label="RhinoFence Fencing Zimbabwe">
  <defs>
    <linearGradient id="bg" x1="0" y1="0" x2="1" y2="1">
      <stop offset="0" stop-color="#161a20"/>
      <stop offset="1" stop-color="#0f1115"/>
    </linearGradient>
    <linearGradient id="or" x1="0" y1="0" x2="1" y2="1">
      <stop offset="0" stop-color="#ff8a3d"/>
      <stop offset="1" stop-color="#ff6a13"/>
    </linearGradient>
  </defs>
  <rect width="1200" height="630" fill="url(#bg)"/>
  <!-- grid glow -->
  <g stroke="#2c343f" stroke-width="1" opacity="0.5">
    <path d="M0 90h1200M0 180h1200M0 270h1200M0 360h1200M0 450h1200M0 540h1200"/>
    <path d="M90 0v630M270 0v630M450 0v630M630 0v630M810 0v630M990 0v630"/>
  </g>
  <circle cx="1050" cy="90" r="360" fill="#ff6a13" opacity="0.12"/>
  <!-- fence icon -->
  <g transform="translate(80,150)">
    <rect x="0" y="0" width="150" height="150" rx="30" fill="#161a20" stroke="#2c343f" stroke-width="4"/>
    <g stroke="url(#or)" stroke-width="8" stroke-linecap="round">
      <line x1="38" y1="48" x2="38" y2="112"/>
      <line x1="62" y1="38" x2="62" y2="112"/>
      <line x1="90" y1="38" x2="90" y2="112"/>
      <line x1="114" y1="48" x2="114" y2="112"/>
      <line x1="28" y1="70" x2="122" y2="62"/>
      <line x1="28" y1="94" x2="122" y2="88"/>
    </g>
  </g>
  <!-- text -->
  <text x="270" y="250" font-family="Segoe UI, Arial, sans-serif" font-size="76" font-weight="800" fill="#ffffff">Rhino<tspan fill="#ff6a13">Fence</tspan></text>
  <text x="272" y="315" font-family="Segoe UI, Arial, sans-serif" font-size="34" font-weight="600" fill="#a7b0bd">Fencing · Gates · Steel Works — Zimbabwe</text>
  <!-- services line -->
  <text x="82" y="430" font-family="Segoe UI, Arial, sans-serif" font-size="30" font-weight="700" fill="#e8ecf1">Clear View · Palisade · Electric · Diamond Mesh · Razor Wire</text>
  <text x="82" y="478" font-family="Segoe UI, Arial, sans-serif" font-size="30" font-weight="700" fill="#e8ecf1">Game Fence · Gates · Steel Structures · Welding</text>
  <!-- cta -->
  <rect x="82" y="522" width="360" height="66" rx="33" fill="url(#or)"/>
  <text x="262" y="565" text-anchor="middle" font-family="Segoe UI, Arial, sans-serif" font-size="30" font-weight="800" fill="#1a0e05">Free Quote · 0714 194 324</text>
  <text x="500" y="565" font-family="Segoe UI, Arial, sans-serif" font-size="26" font-weight="600" fill="#7d8794">Harare &amp; Mvurwi · Nationwide</text>
</svg>
